Pontano.ufo
<glyph name="parenright" format="1">
  <advance width="602"/>
  <unicode hex="0029"/>
  <outline>
    <contour>
      <point x="552" y="703" type="curve" smooth="yes"/>
      <point x="552" y="1242"/>
      <point x="354" y="1518"/>
      <point x="63" y="1587" type="curve"/>
      <point x="34" y="1502" type="line"/>
      <point x="304" y="1426"/>
      <point x="402" y="1117"/>
      <point x="402" y="703" type="curve" smooth="yes"/>
      <point x="402" y="289"/>
      <point x="304" y="-20"/>
      <point x="34" y="-96" type="curve"/>
      <point x="63" y="-181" type="line"/>
      <point x="354" y="-112"/>
      <point x="552" y="164"/>
    </contour>
  </outline>
</glyph>
<glyph name="seven" format="1">
  <advance width="1246"/>
  <unicode hex="0037"/>
  <outline>
    <contour>
      <point x="223" y="1352" type="line"/>
      <point x="211" y="1464" type="line"/>
      <point x="1029" y="1464" type="line"/>
      <point x="1029" y="1351" type="line"/>
      <point x="432" y="-1" type="line"/>
      <point x="274" y="1" type="line"/>
      <point x="877" y="1352" type="line"/>
    </contour>
  </outline>
</glyph>
<glyph name="nine" format="1">
  <advance width="1202"/>
  <unicode hex="0039"/>
  <outline>
    <contour>
      <point x="923" y="646" type="curve"/>
      <point x="910" y="289"/>
      <point x="771" y="97"/>
      <point x="562" y="92" type="curve" smooth="yes"/>
      <point x="470" y="90"/>
      <point x="371" y="120"/>
      <point x="284" y="181" type="curve"/>
      <point x="243" y="70" type="line"/>
      <point x="339" y="6"/>
      <point x="467" y="-25"/>
      <point x="565" y="-25" type="curve" smooth="yes"/>
      <point x="867" y="-25"/>
      <point x="1082" y="265"/>
      <point x="1082" y="766" type="curve" smooth="yes"/>
      <point x="1082" y="1214"/>
      <point x="926" y="1491"/>
      <point x="583" y="1491" type="curve" smooth="yes"/>
      <point x="281" y="1491"/>
      <point x="123" y="1232"/>
      <point x="123" y="982" type="curve" smooth="yes"/>
      <point x="123" y="677"/>
      <point x="314" y="509"/>
      <point x="584" y="520" type="curve" smooth="yes"/>
      <point x="697" y="525"/>
      <point x="826" y="569"/>
    </contour>
    <contour>
      <point x="923" y="765" type="line"/>
      <point x="824" y="687"/>
      <point x="709" y="636"/>
      <point x="597" y="632" type="curve" smooth="yes"/>
      <point x="372" y="624"/>
      <point x="274" y="744"/>
      <point x="274" y="986" type="curve" smooth="yes"/>
      <point x="274" y="1229"/>
      <point x="395" y="1373"/>
      <point x="583" y="1373" type="curve" smooth="yes"/>
      <point x="860" y="1373"/>
      <point x="923" y="1097"/>
      <point x="923" y="807" type="curve" smooth="yes"/>
    </contour>
  </outline>
</glyph>
<glyph name="less" format="1">
  <advance width="1051"/>
  <unicode hex="003C"/>
  <outline>
    <contour>
      <point x="998" y="241" type="line"/>
      <point x="998" y="103" type="line"/>
      <point x="49" y="469" type="line"/>
      <point x="49" y="595" type="line"/>
      <point x="998" y="950" type="line"/>
      <point x="998" y="798" type="line"/>
      <point x="211" y="525" type="line"/>
    </contour>
  </outline>
</glyph>
<glyph name="F" format="1">
  <advance width="1178"/>
  <unicode hex="0046"/>
  <outline>
    <component base="uc_main_stem"/>
    <contour>
      <point x="1117" y="1352" type="line"/>
      <point x="219" y="1352" type="line"/>
      <point x="219" y="1464" type="line"/>
      <point x="1117" y="1464" type="line"/>
    </contour>
    <contour>
      <point x="219" y="830" type="line"/>
      <point x="1009" y="830" type="line"/>
      <point x="1009" y="716" type="line"/>
      <point x="219" y="716" type="line"/>
    </contour>
  </outline>
</glyph>
<glyph name="H" format="1">
  <advance width="1457"/>
  <unicode hex="0048"/>
  <outline>
    <component base="uc_main_stem"/>
    <component base="uc_main_stem" xOffset="1016"/>
    <contour>
      <point x="1235" y="836" type="line"/>
      <point x="1235" y="720" type="line"/>
      <point x="228" y="720" type="line"/>
      <point x="228" y="836" type="line"/>
    </contour>
  </outline>
</glyph>
<glyph name="K" format="1">
  <advance width="1252"/>
  <unicode hex="004B"/>
  <outline>
    <component base="uc_main_stem"/>
    <contour>
      <point x="615" y="969" type="line"/>
      <point x="1244" y="0" type="line"/>
      <point x="1077" y="0" type="line"/>
      <point x="515" y="867" type="line"/>
    </contour>
    <contour>
      <point x="1180" y="1464" type="line"/>
      <point x="229" y="483" type="line"/>
      <point x="229" y="656" type="line"/>
      <point x="1003" y="1464" type="line"/>
    </contour>
  </outline>
</glyph>
<glyph name="L" format="1">
  <advance width="1020"/>
  <unicode hex="004C"/>
  <outline>
    <component base="uc_main_stem"/>
    <contour>
      <point x="1041" y="0" type="line"/>
      <point x="224" y="0" type="line"/>
      <point x="224" y="112" type="line"/>
      <point x="1041" y="112" type="line"/>
    </contour>
  </outline>
</glyph>
<glyph name="O" format="1">
  <advance width="1441"/>
  <unicode hex="004F"/>
  <outline>
    <contour>
      <point x="719" y="1488" type="curve" smooth="yes"/>
      <point x="1099" y="1488"/>
      <point x="1331" y="1281"/>
      <point x="1331" y="741" type="curve" smooth="yes"/>
      <point x="1331" y="193"/>
      <point x="1109" y="-24"/>
      <point x="718" y="-24" type="curve" smooth="yes"/>
      <point x="335" y="-24"/>
      <point x="110" y="186"/>
      <point x="110" y="740" type="curve" smooth="yes"/>
      <point x="110" y="1282"/>
      <point x="340" y="1488"/>
    </contour>
    <contour>
      <point x="719" y="1372" type="curve" smooth="yes"/>
      <point x="366" y="1372"/>
      <point x="264" y="1131"/>
      <point x="264" y="741" type="curve" smooth="yes"/>
      <point x="264" y="302"/>
      <point x="380" y="92"/>
      <point x="720" y="92" type="curve" smooth="yes"/>
      <point x="1060" y="92"/>
      <point x="1177" y="298"/>
      <point x="1177" y="740" type="curve" smooth="yes"/>
      <point x="1177" y="1131"/>
      <point x="1073" y="1372"/>
    </contour>
  </outline>
</glyph>
<glyph name="P" format="1">
  <advance width="1248"/>
  <unicode hex="0050"/>
  <outline>
    <component base="uc_main_stem"/>
    <contour>
      <point x="226" y="1464" type="line"/>
      <point x="534" y="1464" type="line" smooth="yes"/>
      <point x="1010" y="1464"/>
      <point x="1186" y="1360"/>
      <point x="1186" y="1063" type="curve" smooth="yes"/>
      <point x="1186" y="724"/>
      <point x="987" y="635"/>
      <point x="475" y="635" type="curve" smooth="yes"/>
      <point x="226" y="635" type="line"/>
      <point x="226" y="748" type="line"/>
      <point x="531" y="748" type="line"/>
      <point x="894" y="749"/>
      <point x="1038" y="807"/>
      <point x="1038" y="1055" type="curve" smooth="yes"/>
      <point x="1038" y="1306"/>
      <point x="894" y="1352"/>
      <point x="511" y="1352" type="curve" smooth="yes"/>
      <point x="226" y="1352" type="line"/>
    </contour>
  </outline>
</glyph>
<glyph name="Q" format="1">
  <advance width="1434"/>
  <unicode hex="0051"/>
  <outline>
    <component base="O"/>
    <contour>
      <point x="1266" y="-345" type="line"/>
      <point x="976" y="77" type="line"/>
      <point x="1076" y="141" type="line"/>
      <point x="1374" y="-263" type="line"/>
    </contour>
  </outline>
</glyph>
<glyph name="R" format="1">
  <advance width="1286"/>
  <unicode hex="0052"/>
  <outline>
    <component base="uc_main_stem"/>
    <contour>
      <point x="228" y="1464" type="line"/>
      <point x="677" y="1464" type="line" smooth="yes"/>
      <point x="1064" y="1464"/>
      <point x="1214" y="1346"/>
      <point x="1214" y="1081" type="curve" smooth="yes"/>
      <point x="1214" y="869"/>
      <point x="1107" y="733"/>
      <point x="898" y="695" type="curve"/>
      <point x="1238" y="0" type="line"/>
      <point x="1082" y="0" type="line"/>
      <point x="750" y="675" type="line"/>
      <point x="228" y="675" type="line"/>
      <point x="228" y="786" type="line"/>
      <point x="674" y="786" type="line" smooth="yes"/>
      <point x="888" y="786"/>
      <point x="1065" y="825"/>
      <point x="1065" y="1079" type="curve" smooth="yes"/>
      <point x="1065" y="1336"/>
      <point x="869" y="1352"/>
      <point x="668" y="1352" type="curve" smooth="yes"/>
      <point x="228" y="1352" type="line"/>
    </contour>
  </outline>
</glyph>
<glyph name="S" format="1">
  <advance width="1216"/>
  <unicode hex="0053"/>
  <outline>
    <contour>
      <point x="618" y="1491" type="curve" smooth="yes"/>
      <point x="850" y="1491"/>
      <point x="1009" y="1420"/>
      <point x="1127" y="1240" type="curve"/>
      <point x="1019" y="1160" type="line"/>
      <point x="939" y="1302.67"/>
      <point x="797" y="1374"/>
      <point x="639" y="1374" type="curve" smooth="yes"/>
      <point x="446" y="1374"/>
      <point x="284" y="1307.72"/>
      <point x="284" y="1137" type="curve" smooth="yes"/>
      <point x="284" y="934.07"/>
      <point x="492" y="901"/>
      <point x="713" y="829" type="curve" smooth="yes"/>
      <point x="1001" y="735"/>
      <point x="1158" y="646"/>
      <point x="1158" y="393" type="curve" smooth="yes"/>
      <point x="1158" y="126"/>
      <point x="941" y="-25"/>
      <point x="615" y="-25" type="curve" smooth="yes"/>
      <point x="390" y="-25"/>
      <point x="101" y="69"/>
      <point x="45" y="373" type="curve"/>
      <point x="168" y="426" type="line"/>
      <point x="228.789" y="199.56"/>
      <point x="379.75" y="93"/>
      <point x="630" y="93" type="curve" smooth="yes"/>
      <point x="806.181" y="93"/>
      <point x="1005" y="160.84"/>
      <point x="1005" y="388" type="curve" smooth="yes"/>
      <point x="1005" y="584"/>
      <point x="882" y="631"/>
      <point x="565" y="731" type="curve" smooth="yes"/>
      <point x="328" y="806"/>
      <point x="131" y="880.413"/>
      <point x="131" y="1125" type="curve" smooth="yes"/>
      <point x="131" y="1378"/>
      <point x="372" y="1491"/>
    </contour>
  </outline>
</glyph>
<glyph name="W" format="1">
  <advance width="1797"/>
  <unicode hex="0057"/>
  <outline>
    <contour>
      <point x="429" y="0" type="line"/>
      <point x="12" y="1464" type="line"/>
      <point x="164" y="1464" type="line"/>
      <point x="490" y="234" type="line"/>
      <point x="865" y="1464" type="line"/>
      <point x="969" y="1464" type="line"/>
      <point x="1316" y="217" type="line"/>
      <point x="1646" y="1464" type="line"/>
      <point x="1785" y="1464" type="line"/>
      <point x="1370" y="0" type="line"/>
      <point x="1244" y="0" type="line"/>
      <point x="907" y="1187" type="line"/>
      <point x="540" y="0" type="line"/>
    </contour>
  </outline>
</glyph>
<glyph name="a" format="1">
  <advance width="999"/>
  <unicode hex="0061"/>
  <outline>
    <contour>
      <point x="736" y="228" type="line"/>
      <point x="649" y="121"/>
      <point x="544" y="73"/>
      <point x="423" y="73" type="curve" smooth="yes"/>
      <point x="293" y="73"/>
      <point x="235" y="124"/>
      <point x="235" y="243" type="curve" smooth="yes"/>
      <point x="235" y="380"/>
      <point x="294" y="433"/>
      <point x="609" y="480" type="curve"/>
      <point x="736" y="500" type="line"/>
    </contour>
    <contour>
      <point x="756" y="0" type="line"/>
      <point x="878" y="0" type="line"/>
      <point x="878" y="673" type="line" smooth="yes"/>
      <point x="878" y="926"/>
      <point x="763" y="1044"/>
      <point x="522" y="1044" type="curve" smooth="yes"/>
      <point x="360" y="1044"/>
      <point x="239" y="999"/>
      <point x="133" y="918" type="curve"/>
      <point x="133" y="918"/>
      <point x="190" y="834"/>
      <point x="190" y="833" type="curve"/>
      <point x="289" y="909"/>
      <point x="400" y="942"/>
      <point x="514" y="942" type="curve" smooth="yes"/>
      <point x="686" y="942"/>
      <point x="736" y="879"/>
      <point x="736" y="647" type="curve" smooth="yes"/>
      <point x="736" y="589" type="line"/>
      <point x="628" y="573" type="line"/>
      <point x="290" y="526"/>
      <point x="103" y="485"/>
      <point x="103" y="229" type="curve" smooth="yes"/>
      <point x="103" y="50"/>
      <point x="237" y="-25"/>
      <point x="398" y="-25" type="curve" smooth="yes"/>
      <point x="553" y="-25"/>
      <point x="668" y="30"/>
      <point x="743" y="133" type="curve"/>
    </contour>
  </outline>
</glyph>
<glyph name="d" format="1">
  <advance width="1077"/>
  <unicode hex="0064"/>
  <outline>
    <component base="lc_ascender_stem_3" xOffset="-28"/>
    <contour>
      <point x="502" y="-24" type="curve" smooth="yes"/>
      <point x="760" y="-24"/>
      <point x="857" y="164"/>
      <point x="881" y="377" type="curve"/>
      <point x="881" y="630" type="line"/>
      <point x="857" y="884"/>
      <point x="720" y="1044"/>
      <point x="502" y="1044" type="curve" smooth="yes"/>
      <point x="254" y="1044"/>
      <point x="92" y="856"/>
      <point x="92" y="502" type="curve" smooth="yes"/>
      <point x="92" y="190"/>
      <point x="239" y="-24"/>
    </contour>
    <contour>
      <point x="507" y="78" type="curve" smooth="yes"/>
      <point x="332" y="87"/>
      <point x="236" y="229"/>
      <point x="236" y="514" type="curve" smooth="yes"/>
      <point x="236" y="791"/>
      <point x="333" y="942"/>
      <point x="510" y="942" type="curve" smooth="yes"/>
      <point x="696" y="942"/>
      <point x="814" y="811"/>
      <point x="814" y="520" type="curve" smooth="yes"/>
      <point x="814" y="205"/>
      <point x="702" y="68"/>
    </contour>
  </outline>
</glyph>
<glyph name="e" format="1">
  <advance width="1027"/>
  <unicode hex="0065"/>
  <outline>
    <contour>
      <point x="532" y="1044" type="curve" smooth="yes"/>
      <point x="817" y="1044"/>
      <point x="939" y="834"/>
      <point x="939" y="562" type="curve" smooth="yes"/>
      <point x="939" y="553"/>
      <point x="938" y="517"/>
      <point x="936" y="500" type="curve"/>
      <point x="234" y="500" type="line"/>
      <point x="234" y="269"/>
      <point x="327" y="78"/>
      <point x="539" y="78" type="curve" smooth="yes"/>
      <point x="679" y="78"/>
      <point x="773" y="160"/>
      <point x="808" y="270" type="curve" smooth="yes"/>
      <point x="809" y="270"/>
      <point x="915" y="246"/>
      <point x="915" y="246" type="curve"/>
      <point x="868" y="68"/>
      <point x="703" y="-23"/>
      <point x="542" y="-24" type="curve"/>
      <point x="226" y="-24"/>
      <point x="92" y="229"/>
      <point x="92" y="512" type="curve" smooth="yes"/>
      <point x="92" y="824"/>
      <point x="250" y="1044"/>
    </contour>
    <contour>
      <point x="806" y="594" type="line"/>
      <point x="803" y="809"/>
      <point x="727" y="942"/>
      <point x="531" y="942" type="curve" smooth="yes"/>
      <point x="345" y="942"/>
      <point x="250" y="782"/>
      <point x="234" y="594" type="curve"/>
    </contour>
  </outline>
</glyph>
<glyph name="f" format="1">
  <advance width="623"/>
  <unicode hex="0066"/>
  <outline>
    <contour>
      <point x="359" y="0" type="line"/>
      <point x="359" y="917" type="line"/>
      <point x="559" y="917" type="line"/>
      <point x="559" y="1023" type="line"/>
      <point x="359" y="1023" type="line"/>
      <point x="359" y="1146" type="line" smooth="yes"/>
      <point x="359" y="1305"/>
      <point x="371" y="1366"/>
      <point x="463" y="1366" type="curve" smooth="yes"/>
      <point x="505" y="1366"/>
      <point x="540" y="1353"/>
      <point x="571" y="1338" type="curve"/>
      <point x="608" y="1428" type="line"/>
      <point x="578" y="1449"/>
      <point x="517" y="1474"/>
      <point x="449" y="1474" type="curve" smooth="yes"/>
      <point x="274" y="1474"/>
      <point x="217" y="1363.67"/>
      <point x="217" y="1142" type="curve" smooth="yes"/>
      <point x="217" y="1023" type="line"/>
      <point x="44" y="1023" type="line"/>
      <point x="44" y="917" type="line"/>
      <point x="217" y="917" type="line"/>
      <point x="217" y="0" type="line"/>
    </contour>
  </outline>
</glyph>
<glyph name="i" format="1">
  <advance width="413"/>
  <unicode hex="0069"/>
  <outline>
    <contour>
      <point x="138" y="1242" type="line"/>
      <point x="138" y="1421" type="line"/>
      <point x="279" y="1421" type="line"/>
      <point x="279" y="1242" type="line"/>
    </contour>
    <contour>
      <point x="140" y="0" type="line"/>
      <point x="140" y="1023" type="line"/>
      <point x="282" y="1023" type="line"/>
      <point x="282" y="0" type="line"/>
    </contour>
  </outline>
</glyph>
<glyph name="j" format="1">
  <advance width="482"/>
  <unicode hex="006A"/>
  <outline>
    <contour>
      <point x="140" y="-325" type="curve" smooth="yes"/>
      <point x="322" y="-325"/>
      <point x="356" y="-217"/>
      <point x="356" y="-12" type="curve" smooth="yes"/>
      <point x="356" y="1023" type="line"/>
      <point x="214" y="1023" type="line"/>
      <point x="214" y="-91" type="line" smooth="yes"/>
      <point x="214" y="-182"/>
      <point x="177" y="-207"/>
      <point x="118" y="-207" type="curve" smooth="yes"/>
      <point x="65" y="-207"/>
      <point x="29" y="-189"/>
      <point x="2" y="-177" type="curve"/>
      <point x="-27" y="-284" type="line"/>
      <point x="13" y="-306"/>
      <point x="69" y="-325"/>
    </contour>
    <contour>
      <point x="216" y="1242" type="line"/>
      <point x="357" y="1242" type="line"/>
      <point x="357" y="1421" type="line"/>
      <point x="216" y="1421" type="line"/>
    </contour>
  </outline>
</glyph>
<glyph name="m" format="1">
  <advance width="1782"/>
  <unicode hex="006D"/>
  <outline>
    <component base="lc_main_stem"/>
    <contour>
      <point x="1519" y="0" type="line"/>
      <point x="1661" y="0" type="line"/>
      <point x="1661" y="584" type="line" smooth="yes"/>
      <point x="1661" y="790"/>
      <point x="1642" y="1044"/>
      <point x="1319" y="1044" type="curve" smooth="yes"/>
      <point x="1067" y="1044"/>
      <point x="923" y="891"/>
      <point x="900" y="610" type="curve"/>
      <point x="965" y="494" type="line"/>
      <point x="965" y="742"/>
      <point x="1043" y="943"/>
      <point x="1299" y="943" type="curve" smooth="yes"/>
      <point x="1476" y="943"/>
      <point x="1519" y="812"/>
      <point x="1519" y="603" type="curve" smooth="yes"/>
    </contour>
    <contour>
      <point x="823" y="0" type="line"/>
      <point x="965" y="0" type="line"/>
      <point x="965" y="584" type="line" smooth="yes"/>
      <point x="965" y="790"/>
      <point x="946" y="1044"/>
      <point x="623" y="1044" type="curve" smooth="yes"/>
      <point x="371" y="1044"/>
      <point x="227" y="887"/>
      <point x="204" y="610" type="curve"/>
      <point x="269" y="499" type="line"/>
      <point x="269" y="747"/>
      <point x="349" y="943"/>
      <point x="603" y="943" type="curve" smooth="yes"/>
      <point x="780" y="943"/>
      <point x="823" y="812"/>
      <point x="823" y="603" type="curve" smooth="yes"/>
    </contour>
  </outline>
</glyph>
<glyph name="n" format="1">
  <advance width="1086"/>
  <unicode hex="006E"/>
  <outline>
    <component base="lc_main_stem"/>
    <contour>
      <point x="823" y="0" type="line"/>
      <point x="965" y="0" type="line"/>
      <point x="965" y="584" type="line" smooth="yes"/>
      <point x="965" y="787"/>
      <point x="944" y="1044"/>
      <point x="623" y="1044" type="curve" smooth="yes"/>
      <point x="369" y="1044"/>
      <point x="225" y="893"/>
      <point x="202" y="595" type="curve"/>
      <point x="268" y="509" type="line"/>
      <point x="268" y="752"/>
      <point x="349" y="943"/>
      <point x="601" y="943" type="curve" smooth="yes"/>
      <point x="778" y="943"/>
      <point x="823" y="816"/>
      <point x="823" y="605" type="curve" smooth="yes"/>
    </contour>
  </outline>
</glyph>
<glyph name="o" format="1">
  <advance width="1064"/>
  <unicode hex="006F"/>
  <outline>
    <contour>
      <point x="972" y="510" type="curve" smooth="yes"/>
      <point x="972" y="860"/>
      <point x="797" y="1044"/>
      <point x="532" y="1044" type="curve" smooth="yes"/>
      <point x="267" y="1044"/>
      <point x="92" y="860"/>
      <point x="92" y="510" type="curve" smooth="yes"/>
      <point x="92" y="160"/>
      <point x="267" y="-24"/>
      <point x="532" y="-24" type="curve" smooth="yes"/>
      <point x="797" y="-24"/>
      <point x="972" y="160"/>
    </contour>
    <contour>
      <point x="237" y="510" type="curve" smooth="yes"/>
      <point x="237" y="721"/>
      <point x="298" y="943"/>
      <point x="532" y="943" type="curve" smooth="yes"/>
      <point x="766" y="943"/>
      <point x="827" y="721"/>
      <point x="827" y="510" type="curve" smooth="yes"/>
      <point x="827" y="299"/>
      <point x="766" y="77"/>
      <point x="532" y="77" type="curve" smooth="yes"/>
      <point x="298" y="77"/>
      <point x="237" y="299"/>
    </contour>
  </outline>
</glyph>
<glyph name="p" format="1">
  <advance width="1082"/>
  <unicode hex="0070"/>
  <outline>
    <component base="lc_descender_stem"/>
    <contour>
      <point x="580" y="-24" type="curve" smooth="yes"/>
      <point x="843" y="-24"/>
      <point x="990" y="190"/>
      <point x="990" y="502" type="curve" smooth="yes"/>
      <point x="990" y="856"/>
      <point x="828" y="1044"/>
      <point x="580" y="1044" type="curve" smooth="yes"/>
      <point x="362" y="1044"/>
      <point x="228" y="884"/>
      <point x="204" y="630" type="curve"/>
      <point x="204" y="361" type="line"/>
      <point x="226" y="142"/>
      <point x="332" y="-24"/>
    </contour>
    <contour>
      <point x="575" y="77" type="curve" smooth="yes"/>
      <point x="354" y="77"/>
      <point x="268" y="205"/>
      <point x="268" y="520" type="curve" smooth="yes"/>
      <point x="268" y="811"/>
      <point x="386" y="943"/>
      <point x="572" y="943" type="curve" smooth="yes"/>
      <point x="749" y="943"/>
      <point x="846" y="791"/>
      <point x="846" y="514" type="curve" smooth="yes"/>
      <point x="846" y="229"/>
      <point x="750" y="77"/>
    </contour>
  </outline>
</glyph>
<glyph name="q" format="1">
  <advance width="1082"/>
  <unicode hex="0071"/>
  <outline>
    <component base="lc_descender_stem_2" xOffset="686"/>
    <contour>
      <point x="502" y="-24" type="curve" smooth="yes"/>
      <point x="750" y="-24"/>
      <point x="856" y="142"/>
      <point x="878" y="361" type="curve"/>
      <point x="878" y="630" type="line"/>
      <point x="854" y="884"/>
      <point x="720" y="1044"/>
      <point x="502" y="1044" type="curve" smooth="yes"/>
      <point x="254" y="1044"/>
      <point x="92" y="856"/>
      <point x="92" y="502" type="curve" smooth="yes"/>
      <point x="92" y="190"/>
      <point x="239" y="-24"/>
    </contour>
    <contour>
      <point x="507" y="77" type="curve" smooth="yes"/>
      <point x="332" y="77"/>
      <point x="236" y="229"/>
      <point x="236" y="514" type="curve" smooth="yes"/>
      <point x="236" y="791"/>
      <point x="333" y="943"/>
      <point x="510" y="943" type="curve" smooth="yes"/>
      <point x="696" y="943"/>
      <point x="814" y="811"/>
      <point x="814" y="520" type="curve" smooth="yes"/>
      <point x="814" y="205"/>
      <point x="728" y="77"/>
    </contour>
  </outline>
</glyph>
<glyph name="r" format="1">
  <advance width="626"/>
  <unicode hex="0072"/>
  <outline>
    <component base="lc_main_stem"/>
    <contour>
      <point x="269" y="532" type="line"/>
      <point x="269" y="717"/>
      <point x="349" y="903"/>
      <point x="578" y="903" type="curve"/>
      <point x="578" y="1029" type="line"/>
      <point x="390" y="1029"/>
      <point x="259" y="911"/>
      <point x="211" y="644" type="curve"/>
    </contour>
  </outline>
</glyph>
<glyph name="u" format="1">
  <advance width="1086"/>
  <unicode hex="0075"/>
  <outline>
    <component base="lc_main_stem" xOffset="690"/>
    <contour>
      <point x="263" y="1023" type="line"/>
      <point x="121" y="1023" type="line"/>
      <point x="121" y="462" type="line" smooth="yes"/>
      <point x="121" y="256"/>
      <point x="134" y="-18"/>
      <point x="463" y="-24" type="curve" smooth="yes"/>
      <point x="725" y="-29"/>
      <point x="856" y="130"/>
      <point x="882" y="420" type="curve"/>
      <point x="817" y="517" type="line"/>
      <point x="817" y="269"/>
      <point x="734" y="68"/>
      <point x="487" y="77" type="curve" smooth="yes"/>
      <point x="305" y="84"/>
      <point x="263" y="208"/>
      <point x="263" y="427" type="curve" smooth="yes"/>
    </contour>
  </outline>
</glyph>
<glyph name="x" format="1">
  <advance width="966"/>
  <unicode hex="0078"/>
  <outline>
    <contour>
      <point x="413" y="526" type="line"/>
      <point x="479" y="606" type="line"/>
      <point x="773" y="1023" type="line"/>
      <point x="926" y="1023" type="line"/>
      <point x="554" y="510" type="line"/>
      <point x="484" y="421" type="line"/>
      <point x="184" y="0" type="line"/>
      <point x="31" y="0" type="line"/>
    </contour>
    <contour>
      <point x="32" y="1023" type="line"/>
      <point x="188" y="1023" type="line"/>
      <point x="938" y="0" type="line"/>
      <point x="782" y="0" type="line"/>
    </contour>
  </outline>
</glyph>
<glyph name="asciitilde" format="1">
  <advance width="962"/>
  <unicode hex="007E"/>
  <outline>
    <contour>
      <point x="758" y="694" type="curve" smooth="yes"/>
      <point x="865" y="685"/>
      <point x="932" y="754"/>
      <point x="941" y="946" type="curve"/>
      <point x="822" y="946" type="line"/>
      <point x="804" y="855"/>
      <point x="800" y="826"/>
      <point x="743" y="826" type="curve" smooth="yes"/>
      <point x="669" y="826"/>
      <point x="338" y="941"/>
      <point x="226" y="950" type="curve" smooth="yes"/>
      <point x="134" y="957"/>
      <point x="36" y="944"/>
      <point x="21" y="707" type="curve"/>
      <point x="139" y="707" type="line"/>
      <point x="160" y="818"/>
      <point x="185" y="825"/>
      <point x="217" y="825" type="curve" smooth="yes"/>
      <point x="314" y="825"/>
      <point x="606" y="707"/>
    </contour>
  </outline>
</glyph>
<glyph name="cent" format="1">
  <advance width="982"/>
  <unicode hex="00A2"/>
  <outline>
    <component base="c"/>
    <contour>
      <point x="484" y="-208" type="line"/>
      <point x="577" y="-208" type="line"/>
      <point x="577" y="1253" type="line"/>
      <point x="484" y="1253" type="line"/>
    </contour>
  </outline>
</glyph>
<glyph name="yen" format="1">
  <advance width="1162"/>
  <unicode hex="00A5"/>
  <outline>
    <component base="Y"/>
    <contour>
      <point x="256" y="544" type="line"/>
      <point x="256" y="630" type="line"/>
      <point x="910" y="630" type="line"/>
      <point x="910" y="544" type="line"/>
    </contour>
    <contour>
      <point x="910" y="420" type="line"/>
      <point x="910" y="334" type="line"/>
      <point x="256" y="334" type="line"/>
      <point x="256" y="420" type="line"/>
    </contour>
  </outline>
</glyph>
<glyph name="section" format="1">
  <advance width="1005"/>
  <unicode hex="00A7"/>
  <outline>
    <contour>
      <point x="531" y="-25" type="curve" smooth="yes"/>
      <point x="751" y="-25"/>
      <point x="883" y="68"/>
      <point x="900" y="253" type="curve" smooth="yes"/>
      <point x="909" y="350"/>
      <point x="850" y="432"/>
      <point x="775" y="482" type="curve"/>
      <point x="850" y="565"/>
      <point x="873" y="647"/>
      <point x="873" y="714" type="curve" smooth="yes"/>
      <point x="873" y="1022"/>
      <point x="310" y="985"/>
      <point x="303" y="1198" type="curve" smooth="yes"/>
      <point x="299" y="1314"/>
      <point x="374" y="1378"/>
      <point x="527" y="1378" type="curve" smooth="yes"/>
      <point x="659" y="1378"/>
      <point x="731" y="1340.17"/>
      <point x="793" y="1229" type="curve"/>
      <point x="793" y="1230"/>
      <point x="884" y="1286"/>
      <point x="884" y="1286" type="curve"/>
      <point x="810" y="1437.7"/>
      <point x="704" y="1491"/>
      <point x="527" y="1491" type="curve" smooth="yes"/>
      <point x="308" y="1491"/>
      <point x="164" y="1391"/>
      <point x="164" y="1210" type="curve" smooth="yes"/>
      <point x="164" y="1092"/>
      <point x="239" y="1027"/>
      <point x="307" y="986" type="curve"/>
      <point x="212" y="898"/>
      <point x="176" y="823"/>
      <point x="174" y="755" type="curve" smooth="yes"/>
      <point x="166" y="437"/>
      <point x="812" y="499"/>
      <point x="774" y="251" type="curve" smooth="yes"/>
      <point x="758" y="144"/>
      <point x="681" y="93"/>
      <point x="536" y="93" type="curve" smooth="yes"/>
      <point x="374" y="93"/>
      <point x="273" y="162.478"/>
      <point x="229" y="310" type="curve"/>
      <point x="127" y="273" type="line"/>
      <point x="165" y="49"/>
      <point x="366" y="-25"/>
    </contour>
    <contour>
      <point x="677" y="532" type="curve"/>
      <point x="425" y="652"/>
      <point x="155" y="655"/>
      <point x="391" y="939" type="curve"/>
      <point x="686.514" y="825.234"/>
      <point x="838.163" y="807.767"/>
    </contour>
  </outline>
</glyph>
<glyph name="uni00AD" format="1">
  <advance width="724"/>
  <unicode hex="00AD"/>
  <outline>
    <contour>
      <point x="100" y="400" type="line"/>
      <point x="100" y="511" type="line"/>
      <point x="600" y="511" type="line"/>
      <point x="600" y="400" type="line"/>
    </contour>
  </outline>
</glyph>
<glyph name="degree" format="1">
  <advance width="483"/>
  <unicode hex="00B0"/>
  <outline>
    <contour>
      <point x="240" y="1032" type="curve" smooth="yes"/>
      <point x="388" y="1032"/>
      <point x="480" y="1143"/>
      <point x="480" y="1267" type="curve" smooth="yes"/>
      <point x="480" y="1391"/>
      <point x="388" y="1502"/>
      <point x="240" y="1502" type="curve" smooth="yes"/>
      <point x="92" y="1502"/>
      <point x="0" y="1391"/>
      <point x="0" y="1267" type="curve" smooth="yes"/>
      <point x="0" y="1143"/>
      <point x="92" y="1032"/>
    </contour>
    <contour>
      <point x="240" y="1418" type="curve" smooth="yes"/>
      <point x="334" y="1418"/>
      <point x="382" y="1341"/>
      <point x="382" y="1267" type="curve" smooth="yes"/>
      <point x="382" y="1193"/>
      <point x="334" y="1116"/>
      <point x="240" y="1116" type="curve" smooth="yes"/>
      <point x="146" y="1116"/>
      <point x="98" y="1193"/>
      <point x="98" y="1267" type="curve" smooth="yes"/>
      <point x="98" y="1341"/>
      <point x="146" y="1418"/>
    </contour>
  </outline>
</glyph>
<glyph name="paragraph" format="1">
  <advance width="1038"/>
  <unicode hex="00B6"/>
  <outline>
    <contour>
      <point x="469" y="0" type="line"/>
      <point x="469" y="799" type="line"/>
      <point x="254" y="799"/>
      <point x="109" y="928"/>
      <point x="109" y="1124" type="curve" smooth="yes"/>
      <point x="109" y="1303"/>
      <point x="186" y="1464"/>
      <point x="626" y="1464" type="curve" smooth="yes"/>
      <point x="974" y="1464" type="line"/>
      <point x="974" y="1349" type="line"/>
      <point x="824" y="1349" type="line"/>
      <point x="824" y="0" type="line"/>
      <point x="698" y="0" type="line"/>
      <point x="698" y="799" type="line"/>
      <point x="595" y="799" type="line"/>
      <point x="595" y="0" type="line"/>
    </contour>
  </outline>
</glyph>
<glyph name="guillemotright" format="1">
  <advance width="946"/>
  <unicode hex="00BB"/>
  <outline>
    <contour>
      <point x="53" y="1049" type="line"/>
      <point x="498" y="748" type="line"/>
      <point x="498" y="551" type="line"/>
      <point x="53" y="250" type="line"/>
      <point x="53" y="391" type="line"/>
      <point x="400" y="650" type="line"/>
      <point x="53" y="907" type="line"/>
    </contour>
    <contour>
      <point x="936" y="748" type="line"/>
      <point x="936" y="551" type="line"/>
      <point x="491" y="250" type="line"/>
      <point x="491" y="391" type="line"/>
      <point x="838" y="650" type="line"/>
      <point x="491" y="907" type="line"/>
      <point x="491" y="1049" type="line"/>
    </contour>
  </outline>
</glyph>
<glyph name="onequarter" format="1">
  <advance width="1403"/>
  <unicode hex="00BC"/>
  <outline>
    <contour>
      <point x="155" y="-14" type="line"/>
      <point x="1390" y="1415" type="line"/>
      <point x="1314" y="1481" type="line"/>
      <point x="78" y="52" type="line"/>
    </contour>
    <contour>
      <point x="242" y="1365" type="line"/>
      <point x="242" y="769" type="line"/>
      <point x="355" y="769" type="line"/>
      <point x="355" y="1464" type="line"/>
      <point x="252" y="1464" type="line"/>
      <point x="104" y="1397" type="line"/>
      <point x="125" y="1307" type="line"/>
    </contour>
    <contour>
      <point x="789" y="152" type="line"/>
      <point x="1140" y="152" type="line"/>
      <point x="1140" y="0" type="line"/>
      <point x="1255" y="0" type="line"/>
      <point x="1255" y="152" type="line"/>
      <point x="1355" y="152" type="line"/>
      <point x="1355" y="234" type="line"/>
      <point x="1255" y="234" type="line"/>
      <point x="1255" y="693" type="line"/>
      <point x="1109" y="693" type="line"/>
      <point x="789" y="220" type="line"/>
    </contour>
    <contour>
      <point x="1140" y="234" type="line"/>
      <point x="903" y="234" type="line"/>
      <point x="1140" y="585" type="line"/>
    </contour>
  </outline>
</glyph>
<glyph name="threequarters" format="1">
  <advance width="1548"/>
  <unicode hex="00BE"/>
  <outline>
    <contour>
      <point x="570" y="1308" type="curve" smooth="yes"/>
      <point x="570" y="1396"/>
      <point x="488" y="1481"/>
      <point x="346" y="1481" type="curve" smooth="yes"/>
      <point x="264" y="1481"/>
      <point x="161" y="1440"/>
      <point x="131" y="1358" type="curve"/>
      <point x="204" y="1307" type="line"/>
      <point x="232" y="1368"/>
      <point x="293" y="1396"/>
      <point x="347" y="1396" type="curve" smooth="yes"/>
      <point x="421" y="1396"/>
      <point x="466" y="1357"/>
      <point x="466" y="1299" type="curve" smooth="yes"/>
      <point x="466" y="1234"/>
      <point x="429" y="1184"/>
      <point x="307" y="1182" type="curve"/>
      <point x="307" y="1095" type="line"/>
      <point x="443" y="1095"/>
      <point x="495" y="1040"/>
      <point x="495" y="953" type="curve" smooth="yes"/>
      <point x="495" y="895"/>
      <point x="448" y="834"/>
      <point x="368" y="834" type="curve" smooth="yes"/>
      <point x="292" y="834"/>
      <point x="229" y="863"/>
      <point x="200" y="942" type="curve"/>
      <point x="119" y="910" type="line"/>
      <point x="148" y="791"/>
      <point x="266" y="746"/>
      <point x="360" y="745" type="curve"/>
      <point x="520" y="745"/>
      <point x="600" y="843"/>
      <point x="602" y="949" type="curve" smooth="yes"/>
      <point x="603" y="1001"/>
      <point x="586" y="1108"/>
      <point x="442" y="1144" type="curve"/>
      <point x="536" y="1171"/>
      <point x="570" y="1242"/>
    </contour>
    <contour>
      <point x="248" y="-14" type="line"/>
      <point x="1483" y="1415" type="line"/>
      <point x="1407" y="1481" type="line"/>
      <point x="171" y="52" type="line"/>
    </contour>
    <contour>
      <point x="1195" y="152" type="line"/>
      <point x="1195" y="0" type="line"/>
      <point x="1310" y="0" type="line"/>
      <point x="1310" y="152" type="line"/>
      <point x="1410" y="152" type="line"/>
      <point x="1410" y="234" type="line"/>
      <point x="1310" y="234" type="line"/>
      <point x="1310" y="693" type="line"/>
      <point x="1164" y="693" type="line"/>
      <point x="844" y="220" type="line"/>
      <point x="844" y="152" type="line"/>
    </contour>
    <contour>
      <point x="958" y="234" type="line"/>
      <point x="1195" y="585" type="line"/>
      <point x="1195" y="234" type="line"/>
    </contour>
  </outline>
</glyph>
<glyph name="oslash" format="1">
  <advance width="1104"/>
  <unicode hex="00F8"/>
  <outline>
    <component base="o"/>
    <contour>
      <point x="906" y="1178" type="line"/>
      <point x="834" y="1216" type="line"/>
      <point x="181" y="-159" type="line"/>
      <point x="254" y="-197" type="line"/>
    </contour>
  </outline>
</glyph>
<glyph name="thorn" format="1">
  <advance width="1058"/>
  <unicode hex="00FE"/>
  <outline>
    <contour>
      <point x="559" y="78" type="curve" smooth="yes"/>
      <point x="351" y="78"/>
      <point x="273" y="294"/>
      <point x="273" y="519" type="curve" smooth="yes"/>
      <point x="273" y="803"/>
      <point x="396" y="942"/>
      <point x="557" y="942" type="curve" smooth="yes"/>
      <point x="708" y="942"/>
      <point x="821" y="810"/>
      <point x="821" y="521" type="curve" smooth="yes"/>
      <point x="821" y="243"/>
      <point x="724" y="78"/>
    </contour>
    <contour>
      <point x="131" y="1464" type="line"/>
      <point x="131" y="-394" type="line"/>
      <point x="273" y="-378" type="line"/>
      <point x="273" y="174" type="line"/>
      <point x="327" y="52"/>
      <point x="417" y="-24"/>
      <point x="576" y="-24" type="curve" smooth="yes"/>
      <point x="817" y="-24"/>
      <point x="967" y="217"/>
      <point x="967" y="520" type="curve" smooth="yes"/>
      <point x="967" y="812"/>
      <point x="848" y="1044"/>
      <point x="573" y="1044" type="curve" smooth="yes"/>
      <point x="431" y="1044"/>
      <point x="325" y="972"/>
      <point x="272" y="834" type="curve"/>
      <point x="272" y="1464" type="line"/>
    </contour>
  </outline>
</glyph>
<glyph name="dcroat" format="1">
  <advance width="1137"/>
  <unicode hex="0111"/>
  <outline>
    <component base="d"/>
    <contour>
      <point x="574" y="1201" type="line"/>
      <point x="1094" y="1201" type="line"/>
      <point x="1094" y="1287" type="line"/>
      <point x="574" y="1287" type="line"/>
    </contour>
  </outline>
</glyph>
<glyph name="kgreenlandic" format="1">
  <advance width="1010"/>
  <unicode hex="0138"/>
  <outline>
    <component base="lc_main_stem"/>
    <contour>
      <point x="550" y="653" type="line"/>
      <point x="464" y="564" type="line"/>
      <point x="858" y="0" type="line"/>
      <point x="1018" y="0" type="line"/>
    </contour>
    <contour>
      <point x="797" y="1023" type="line"/>
      <point x="203" y="372" type="line"/>
      <point x="203" y="231" type="line"/>
      <point x="507" y="544" type="line"/>
      <point x="570" y="587" type="line"/>
      <point x="959" y="1023" type="line"/>
    </contour>
  </outline>
</glyph>
<glyph name="Eng" format="1">
  <advance width="1491"/>
  <unicode hex="014A"/>
  <outline>
    <component base="N"/>
    <contour>
      <point x="1342" y="6" type="line" smooth="yes"/>
      <point x="1342" y="-306.12"/>
      <point x="1169.05" y="-439.214"/>
      <point x="951.887" y="-439.214" type="curve" smooth="yes"/>
      <point x="827.052" y="-439.214"/>
      <point x="687.606" y="-395.234"/>
      <point x="558" y="-316" type="curve"/>
      <point x="608" y="-223" type="line"/>
      <point x="714.547" y="-287.296"/>
      <point x="831.7" y="-328.847"/>
      <point x="933.471" y="-328.847" type="curve" smooth="yes"/>
      <point x="1083.44" y="-328.847"/>
      <point x="1200" y="-238.623"/>
      <point x="1200" y="2" type="curve" smooth="yes"/>
      <point x="1200" y="102" type="line"/>
      <point x="1342" y="102" type="line"/>
    </contour>
  </outline>
</glyph>
<glyph name="eng" format="1">
  <advance width="1086"/>
  <unicode hex="014B"/>
  <outline>
    <component base="n"/>
    <contour>
      <point x="965" y="40" type="curve" smooth="yes"/>
      <point x="965" y="102" type="line"/>
      <point x="823" y="102" type="line"/>
      <point x="823" y="36" type="line" smooth="yes"/>
      <point x="823" y="-180.888"/>
      <point x="721.306" y="-299.036"/>
      <point x="555.588" y="-299.036" type="curve" smooth="yes"/>
      <point x="464.611" y="-299.036"/>
      <point x="354.337" y="-263.428"/>
      <point x="231" y="-189" type="curve"/>
      <point x="181" y="-282" type="line"/>
      <point x="331.553" y="-374.04"/>
      <point x="465.299" y="-414.488"/>
      <point x="577.809" y="-414.488" type="curve" smooth="yes"/>
      <point x="821.021" y="-414.488"/>
      <point x="965" y="-225.476"/>
    </contour>
  </outline>
</glyph>
<glyph name="OE" format="1">
  <advance width="2171"/>
  <unicode hex="0152"/>
  <outline>
    <contour>
      <point x="710" y="1374" type="curve" smooth="yes"/>
      <point x="1047" y="1377"/>
      <point x="1164" y="1215"/>
      <point x="1164" y="800" type="curve" smooth="yes"/>
      <point x="1164" y="694" type="line" smooth="yes"/>
      <point x="1164" y="262"/>
      <point x="1043" y="93"/>
      <point x="708" y="93" type="curve" smooth="yes"/>
      <point x="370" y="93"/>
      <point x="265" y="302"/>
      <point x="265" y="741" type="curve" smooth="yes"/>
      <point x="265" y="1130"/>
      <point x="358" y="1371"/>
    </contour>
    <contour>
      <point x="2121" y="113" type="line"/>
      <point x="1310" y="113" type="line"/>
      <point x="1310" y="723" type="line"/>
      <point x="1996" y="723" type="line"/>
      <point x="1996" y="838" type="line"/>
      <point x="1310" y="838" type="line"/>
      <point x="1310" y="1352" type="line"/>
      <point x="2110" y="1352" type="line"/>
      <point x="2110" y="1464" type="line"/>
      <point x="1163" y="1464" type="line"/>
      <point x="1163" y="1362" type="line" smooth="yes"/>
      <point x="1164" y="1228" type="line"/>
      <point x="1100" y="1397"/>
      <point x="956" y="1491"/>
      <point x="711" y="1491" type="curve" smooth="yes"/>
      <point x="332" y="1491"/>
      <point x="112" y="1282"/>
      <point x="112" y="740" type="curve" smooth="yes"/>
      <point x="112" y="186"/>
      <point x="324" y="-25"/>
      <point x="707" y="-25" type="curve" smooth="yes"/>
      <point x="956" y="-25"/>
      <point x="1116" y="80"/>
      <point x="1164" y="260" type="curve"/>
      <point x="1164.44" y="33.1111" type="line" smooth="yes"/>
      <point x="1164.44" y="13.4444"/>
      <point x="1164.33" y="0.333333"/>
      <point x="1164" y="0" type="curve" smooth="yes"/>
      <point x="2121" y="0" type="line"/>
    </contour>
  </outline>
</glyph>
<glyph name="tbar" format="1">
  <advance width="656"/>
  <unicode hex="0167"/>
  <outline>
    <component base="t"/>
    <contour>
      <point x="11" y="632" type="line"/>
      <point x="573" y="632" type="line"/>
      <point x="573" y="534" type="line"/>
      <point x="11" y="534" type="line"/>
    </contour>
  </outline>
</glyph>
<glyph name="circumflex" format="1">
  <advance width="838"/>
  <unicode hex="02C6"/>
  <outline>
    <contour>
      <point x="337" y="1492" type="line"/>
      <point x="512" y="1492" type="line"/>
      <point x="697" y="1172" type="line"/>
      <point x="600" y="1172" type="line"/>
      <point x="424" y="1425" type="line"/>
      <point x="249" y="1172" type="line"/>
      <point x="152" y="1172" type="line"/>
    </contour>
  </outline>
</glyph>
<glyph name="acutecomb" format="1">
  <advance width="496"/>
  <unicode hex="0301"/>
  <outline>
    <contour>
      <point x="447" y="1492" type="line"/>
      <point x="141" y="1172" type="line"/>
      <point x="47" y="1173" type="line"/>
      <point x="252" y="1492" type="line"/>
    </contour>
  </outline>
</glyph>
<glyph name="uni030F" format="1">
  <advance width="745"/>
  <unicode hex="030F"/>
  <outline>
    <contour>
      <point x="580" y="1492" type="line"/>
      <point x="685" y="1172" type="line"/>
      <point x="619" y="1172" type="line"/>
      <point x="391" y="1492" type="line"/>
    </contour>
    <contour>
      <point x="282" y="1492" type="line"/>
      <point x="417" y="1172" type="line"/>
      <point x="344" y="1172" type="line"/>
      <point x="87" y="1492" type="line"/>
    </contour>
  </outline>
</glyph>
<glyph name="quoteleft" format="1">
  <advance width="330"/>
  <unicode hex="2018"/>
  <outline>
    <contour>
      <point x="145" y="1469" type="curve"/>
      <point x="145" y="1468"/>
      <point x="213" y="1431"/>
      <point x="214" y="1431" type="curve"/>
      <point x="157" y="1335"/>
      <point x="136" y="1298"/>
      <point x="136" y="1200" type="curve"/>
      <point x="230" y="1187" type="line"/>
      <point x="230" y="1143.67"/>
      <point x="229.556" y="1100.33"/>
      <point x="229.556" y="1057" type="curve" smooth="yes"/>
      <point x="229.556" y="1035.33"/>
      <point x="229.667" y="1013.67"/>
      <point x="230" y="992" type="curve"/>
      <point x="30" y="992" type="line"/>
      <point x="30" y="1089" type="line" smooth="yes"/>
      <point x="30" y="1093.83"/>
      <point x="29.9978" y="1098.64"/>
      <point x="29.9978" y="1103.45" type="curve" smooth="yes"/>
      <point x="29.9978" y="1243.95"/>
      <point x="31.8678" y="1374.24"/>
    </contour>
  </outline>
</glyph>
<glyph name="lc_ascender_stem" format="1">
  <advance width="1086"/>
  <outline>
    <contour>
      <point x="127" y="0" type="line"/>
      <point x="270" y="0" type="line"/>
      <point x="269" y="1474" type="line"/>
      <point x="127" y="1474" type="line"/>
    </contour>
  </outline>
</glyph>
<glyph name="lc_descender_stem_2" format="1">
  <advance width="1057"/>
  <outline>
    <contour>
      <point x="127" y="-350" type="line"/>
      <point x="269" y="-350" type="line"/>
      <point x="269" y="1023" type="line"/>
      <point x="147" y="1023" type="line"/>
      <point x="128" y="798" type="line"/>
    </contour>
  </outline>
</glyph>
<glyph name="uc_main_stem" format="1">
  <advance width="1457"/>
  <outline>
    <contour>
      <point x="294" y="0" type="line"/>
      <point x="148" y="0" type="line"/>
      <point x="148" y="1464" type="line"/>
      <point x="294" y="1464" type="line"/>
    </contour>
  </outline>
</glyph>
